<svg width="48" height="48" viewBox="0 0 48 48" fill="none" xmlns="http://www.w3.org/2000/svg">
<path d="M8 36H6C3.8 36 2 34.2 2 32V28C2 25.8 3.8 24 6 24H12L17 14H26C28.2 14 30 15.8 30 18V24H35C36.3 24 37.5 24.6 38.2 25.7L42 31.5V36H39" stroke="white" stroke-width="2.5" stroke-linecap="round" stroke-linejoin="round"/>
<path d="M18 36H29" stroke="white" stroke-width="2.5" stroke-linecap="round"/>
<path d="M12 40C14.2091 40 16 38.2091 16 36C16 33.7909 14.2091 32 12 32C9.79086 32 8 33.7909 8 36C8 38.2091 9.79086 40 12 40Z" stroke="white" stroke-width="2.5"/>
<path d="M35 40C37.2091 40 39 38.2091 39 36C39 33.7909 37.2091 32 35 32C32.7909 32 31 33.7909 31 36C31 38.2091 32.7909 40 35 40Z" stroke="white" stroke-width="2.5"/>
<path d="M30 24V36" stroke="white" stroke-width="2.5" stroke-linecap="round"/>
<path d="M11 24H30" stroke="white" stroke-width="2.5" stroke-linecap="round"/>
<path d="M18 19H24" stroke="white" stroke-width="2.5" stroke-linecap="round"/>
<path d="M35 24V17C35 15.3 36.3 14 38 14H42V24" stroke="white" stroke-width="2.5" stroke-linecap="round" stroke-linejoin="round"/>
<path d="M38.5 18H42" stroke="white" stroke-width="2.5" stroke-linecap="round"/>
</svg>
