<svg width="48" height="48" viewBox="0 0 48 48" fill="none" xmlns="http://www.w3.org/2000/svg">
<path d="M5 39H43" stroke="white" stroke-width="2.5" stroke-linecap="round" stroke-linejoin="round"/>
<path d="M9 35H39C39 26.7 32.3 20 24 20C15.7 20 9 26.7 9 35Z" stroke="white" stroke-width="2.5" stroke-linejoin="round"/>
<path d="M24 20V15" stroke="white" stroke-width="2.5" stroke-linecap="round"/>
<path d="M20 15H28" stroke="white" stroke-width="2.5" stroke-linecap="round"/>
<path d="M15 35C15.6 30.8 18.9 27.6 23 27" stroke="white" stroke-width="2.5" stroke-linecap="round"/>
<path d="M31 13C31 8.6 34.6 5 39 5" stroke="white" stroke-width="2.5" stroke-linecap="round"/>
<path d="M39 5C39 9.4 35.4 13 31 13" stroke="white" stroke-width="2.5" stroke-linecap="round"/>
<path d="M17 13C17 8.6 13.4 5 9 5" stroke="white" stroke-width="2.5" stroke-linecap="round"/>
<path d="M9 5C9 9.4 12.6 13 17 13" stroke="white" stroke-width="2.5" stroke-linecap="round"/>
</svg>
