<?xml version="1.0" encoding="iso-8859-1"?>
<!-- Uploaded to: SVG Repo, www.svgrepo.com, Generator: SVG Repo Mixer Tools -->
<svg fill="#000000" height="800px" width="800px" version="1.1" id="Layer_1" xmlns="http://www.w3.org/2000/svg" xmlns:xlink="http://www.w3.org/1999/xlink" 
	 viewBox="0 0 512 512" xml:space="preserve">
<g>
	<g>
		<path d="M86.154,354.102c-18.506,0-33.561,15.055-33.561,33.561s15.055,33.561,33.561,33.561
			c18.506,0,33.561-15.055,33.561-33.561S104.66,354.102,86.154,354.102z M86.154,405.734c-9.964,0-18.071-8.107-18.071-18.071
			s8.107-18.071,18.071-18.071c9.964,0,18.071,8.107,18.071,18.071S96.118,405.734,86.154,405.734z"/>
	</g>
</g>
<g>
	<g>
		<path d="M437.84,154.584v-10.967c0-43.371-35.286-78.657-78.657-78.657c-43.371,0-78.657,35.286-78.657,78.657v118.631
			c0,24.2-19.688,43.888-43.888,43.888h-6.694c-14.846-17.958-35.909-30.758-60.38-35.015L57.454,251.624
			c-14.291-2.488-28.86,1.441-39.968,10.78C6.374,271.747,0,285.431,0,299.948v95.458c0,15.658,12.74,28.398,28.398,28.398H39.09
			c10.865,14.114,27.915,23.235,47.064,23.235c19.148,0,36.198-9.12,47.064-23.235h91.383c15.658,0,28.398-12.74,28.398-28.398
			v-25.093c0-17.627-4.549-34.295-12.594-48.822c30.992-1.951,55.612-27.77,55.612-59.245V143.616
			c0-34.83,28.336-63.167,63.167-63.167c34.831,0,63.167,28.337,63.167,63.168v10.967c-9.014,3.197-15.49,11.806-15.49,21.902
			v107.395c0,10.096,6.476,18.705,15.49,21.902v78.781h15.49v-78.781c9.014-3.197,15.49-11.806,15.49-21.902V176.486
			C453.33,166.39,446.854,157.781,437.84,154.584z M74.619,270.33l85.029,14.786v12.509c0,3.894-1.732,7.541-4.752,10.002
			c-3.019,2.462-6.945,3.425-10.759,2.642l-59.194-12.163c-5.982-1.235-10.323-6.553-10.323-12.645V270.33z M28.398,408.316
			c-7.118,0-12.908-5.79-12.908-12.908v-0.516h11.742c0.569,4.66,1.668,9.159,3.255,13.424H28.398z M86.154,431.55
			c-24.2,0-43.888-19.687-43.888-43.888s19.687-43.888,43.888-43.888c24.2,0,43.888,19.687,43.888,43.888
			S110.353,431.55,86.154,431.55z M237.509,395.407c0,7.117-5.79,12.908-12.908,12.908H141.82c1.587-4.266,2.686-8.764,3.255-13.424
			h92.434V395.407z M237.509,379.4h-92.565c-4.035-28.843-28.853-51.116-58.79-51.116c-29.936,0-54.756,22.273-58.79,51.116H15.49
			v-79.452c0-9.933,4.362-19.297,11.965-25.691c7.598-6.39,17.561-9.075,27.342-7.375l4.331,0.753v17.826
			c0,13.403,9.539,25.102,22.688,27.815l59.202,12.165c1.917,0.393,3.844,0.587,5.757,0.587c6.474,0,12.782-2.216,17.909-6.396
			c6.643-5.416,10.452-13.438,10.452-22.007v-9.385c36.598,10.126,62.372,43.395,62.372,82.074V379.4z M437.84,283.882
			c0,4.271-3.474,7.745-7.745,7.745c-4.271,0-7.745-3.474-7.745-7.745V176.486c0-4.271,3.474-7.745,7.745-7.745
			c4.271,0,7.745,3.474,7.745,7.745V283.882z"/>
	</g>
</g>
<g>
	<g>
		<path d="M481.96,397.473H378.231L348.19,447.04H512L481.96,397.473z M386.957,412.962h86.279l11.265,18.588h-108.81
			L386.957,412.962z"/>
	</g>
</g>
</svg>